<svg id="_x33_0" enable-background="new 0 0 64 64" height="512" viewBox="0 0 64 64" width="512" xmlns="http://www.w3.org/2000/svg"><g><path d="m35.789 31.658.105-.211-1.789-.895-.105.212c-.381.762-1.147 1.236-2 1.236h-3v2h3c1.615 0 3.067-.897 3.789-2.342z"/><path d="m29.5 21.938h2v4.123h-2z" transform="matrix(.97 -.243 .243 .97 -4.91 8.114)"/><path d="m33.5 21.938h2v4.123h-2z" transform="matrix(.97 -.243 .243 .97 -4.791 9.084)"/><path d="m5 42h2v2h-2z"/><path d="m9 42h2v2h-2z"/><path d="m13 42h2v2h-2z"/><path d="m5 36h2v2h-2z"/><path d="m9 36h2v2h-2z"/><path d="m13 36h2v2h-2z"/><path d="m5 30h2v2h-2z"/><path d="m9 30h2v2h-2z"/><path d="m13 30h2v2h-2z"/><path d="m49 42h2v2h-2z"/><path d="m53 42h2v2h-2z"/><path d="m57 42h2v2h-2z"/><path d="m49 36h2v2h-2z"/><path d="m53 36h2v2h-2z"/><path d="m57 36h2v2h-2z"/><path d="m49 30h2v2h-2z"/><path d="m53 30h2v2h-2z"/><path d="m57 30h2v2h-2z"/><path d="m57 24.719v-9.719h-2v9.219l-2-.5v-4.719h-2v4.219l-2-.5v-18l-12 3v-4.719h-2v5.219l-2 .5v-7.719h-2v8.219l-2 .5v-4.719h-2v5.219l-12 3v12l-2-.5v-9.719h-2v9.219l-2-.5v-4.719h-2v4.219l-6-1.5v39.281h24c0 1.103.897 2 2 2h10c1.103 0 2-.897 2-2h24v-34.781zm4 24.281h-14v-24.719l14 3.5zm-26.219 0-.703-2.813.541-.811 2.931 2.344 1.902-6.658c3.033 1.509 5.146 4.503 5.494 7.939h-10.165zm-1.781 4c0 1.103-.897 2-2 2h-2v-4h2c1.103 0 2 .897 2 2zm-5.447-30.895c-1.504.752-2.453 2.231-2.537 3.895h-.016c-.509 0-.992.105-1.44.279l-.523-3.138c-.024-.149-.037-.3-.037-.45 0-1.178.751-2.221 1.869-2.593l.84-.28.186-.371c.446-.892 1.343-1.447 2.341-1.447h6.641c3.376 0 6.123 2.747 6.123 6.123 0 .501-.062 1-.183 1.485l-.187.747c-.499-.224-1.048-.355-1.63-.355v-2h-2v9c0 1.654-1.346 3-3 3h-4c-1.654 0-3-1.346-3-3v-6.764c0-.998.555-1.895 1.447-2.341zm-2.553 9.895c-1.103 0-2-.897-2-2s.897-2 2-2zm14-4c1.103 0 2 .897 2 2s-.897 2-2 2zm-7.719 21 .5-2h.438l.5 2zm1.184-4h-.93l-.586-.879 1.051-.84 1.051.84zm1.168-2.975 2.609-1.957.736.148c.201.04.396.094.593.146l-1.12 3.918zm-3.633-4.025h4c.203 0 .396-.036.592-.06l.231.692-2.823 2.118-2.823-2.117.231-.692c.196.023.389.059.592.059zm-2.242 2.068 2.609 1.957-2.818 2.255-1.12-3.918c.196-.052.391-.106.593-.146zm-3.209.993 1.902 6.658 2.931-2.344.541.811-.704 2.814h-8.219v2h6v4h-3c-2.757 0-5-2.243-5-5 0-3.848 2.224-7.285 5.549-8.939zm-7.549-26.28 30-7.5v14.938l-2-.5v21.683c-1.717-2.591-4.417-4.505-7.629-5.148l-.606-.121-.275-.823c1.216-.705 2.119-1.89 2.408-3.31h.102c2.206 0 4-1.794 4-4 0-.815-.248-1.572-.668-2.205l.425-1.701c.161-.643.243-1.306.243-1.971 0-4.479-3.644-8.123-8.123-8.123h-6.641c-1.614 0-3.079.822-3.918 2.173l-.082.027c-1.935.646-3.236 2.45-3.236 4.491 0 .261.021.521.064.778l.7 4.199c-.476.658-.764 1.46-.764 2.332 0 2.206 1.794 4 4 4h.101c.289 1.419 1.193 2.604 2.408 3.31l-.275.824-.606.121c-3.212.643-5.912 2.557-7.629 5.148v-17.184l-2-.5v-10.938zm0 13v21.219h-14v-24.719zm-14 31.219v-8h14.08c.488 3.386 3.401 6 6.92 6h1v2zm24 2v-4h4c2.206 0 4-1.794 4-4 0-.732-.212-1.409-.556-2h2.556v10zm12-2v-8h22v8z"/></g></svg>