<?xml version="1.0" encoding="iso-8859-1"?>
<!-- Generator: Adobe Illustrator 19.0.0, SVG Export Plug-In . SVG Version: 6.00 Build 0)  -->
<svg version="1.1" id="Capa_1" xmlns="http://www.w3.org/2000/svg" xmlns:xlink="http://www.w3.org/1999/xlink" x="0px" y="0px"
	 viewBox="0 0 511.999 511.999" style="enable-background:new 0 0 511.999 511.999;" xml:space="preserve">
<linearGradient id="SVGID_1_" gradientUnits="userSpaceOnUse" x1="0.0957" y1="257.2273" x2="513.0952" y2="257.2273" gradientTransform="matrix(0.9981 0 0 -0.9981 -0.0955 512.7256)">
	<stop  offset="0" style="stop-color:#00F2FE"/>
	<stop  offset="0.021" style="stop-color:#03EFFE"/>
	<stop  offset="0.293" style="stop-color:#24D2FE"/>
	<stop  offset="0.554" style="stop-color:#3CBDFE"/>
	<stop  offset="0.796" style="stop-color:#4AB0FE"/>
	<stop  offset="1" style="stop-color:#4FACFE"/>
</linearGradient>
<path style="fill:url(#SVGID_1_);" d="M511.999,60.381v58.885c0,11.024-8.937,19.961-19.961,19.961
	c-11.024,0-19.961-8.937-19.961-19.961V69.644L326.503,215.189c-11.641,11.643-27.494,18.153-43.463,17.852
	c-15.357-0.286-29.997-6.627-41.223-17.854l-23.468-23.468c-4.083-4.083-9.297-6.543-13.948-6.581
	c-4.887-0.049-10.32,2.497-14.488,6.79c-0.058,0.059-0.115,0.118-0.174,0.176l-42.854,43.046c-3.9,3.917-9.023,5.879-14.146,5.879
	c-5.094,0-10.188-1.937-14.082-5.815c-7.813-7.778-7.841-20.416-0.063-28.229l42.776-42.969
	c11.669-11.965,27.283-18.799,42.919-18.799c0.146,0,0.292,0,0.439,0.001c15.107,0.125,30.36,6.785,41.848,18.273l23.468,23.468
	c3.829,3.829,8.837,6.076,13.738,6.168c0.108,0.002,0.217,0.003,0.323,0.003c5.089,0,10.235-2.237,14.167-6.17L444.844,40.42h-52.61
	c-11.024,0-19.961-8.937-19.961-19.961s8.937-19.961,19.961-19.961h59.883C485.136,0.498,511.999,27.362,511.999,60.381z
	 M45.33,283.02l-39.696,40.92c-7.675,7.913-7.484,20.55,0.429,28.226c3.878,3.763,8.889,5.634,13.897,5.634
	c5.21,0,10.416-2.028,14.329-6.062l39.696-40.92c7.675-7.913,7.484-20.55-0.429-28.226C65.643,274.915,53.006,275.107,45.33,283.02z
	 M137.731,295.92L137.731,295.92c-11.023,0-19.961,8.937-19.961,19.961v175.658c0,11.023,8.937,19.961,19.961,19.961h0.001
	c11.023,0,19.961-8.937,19.961-19.961l-0.002-175.659C157.691,304.857,148.755,295.92,137.731,295.92z M215.579,252.007
	c-11.023,0-19.961,8.937-19.961,19.961v219.571c0,11.023,8.937,19.961,19.961,19.961s19.961-8.937,19.961-19.961V271.967
	C235.539,260.944,226.603,252.007,215.579,252.007z M58.952,385.746c-11.05-0.038-20.029,8.91-20.029,19.961v85.832
	c0,11.023,8.937,19.961,19.961,19.961h0.001c11.023,0,19.961-8.937,19.961-19.961v-85.832
	C78.845,394.709,69.951,385.783,58.952,385.746z M372.199,239.032c-10.996,0.04-19.888,8.965-19.888,19.961V491.54
	c0,11.023,8.937,19.961,19.961,19.961h0.001c11.023,0,19.961-8.937,19.961-19.961V258.993
	C392.233,247.94,383.252,238.991,372.199,239.032z M451.118,171.165c-11.024,0-19.961,8.937-19.961,19.961V491.54
	c0,11.023,8.937,19.961,19.961,19.961h0.001c11.023,0,19.961-8.937,19.961-19.961V191.126
	C471.079,180.101,462.143,171.165,451.118,171.165z M293.426,276.958c-11.024,0-19.961,8.937-19.961,19.961v194.62
	c0,11.023,8.937,19.961,19.961,19.961h0.001c11.023,0,19.961-8.937,19.961-19.961v-194.62
	C313.387,285.895,304.451,276.958,293.426,276.958z"/>
<g>
</g>
<g>
</g>
<g>
</g>
<g>
</g>
<g>
</g>
<g>
</g>
<g>
</g>
<g>
</g>
<g>
</g>
<g>
</g>
<g>
</g>
<g>
</g>
<g>
</g>
<g>
</g>
<g>
</g>
</svg>
