<svg xmlns="http://www.w3.org/2000/svg" width="59" height="59" viewBox="0 0 59 59"><defs><style>.a{fill:#000000;}</style></defs><g transform="translate(-38.5 -38.5)"><g transform="translate(38.5 38.5)"><path class="a" d="M68,97.5a29.5,29.5,0,1,1,20.86-8.64A29.307,29.307,0,0,1,68,97.5Zm0-54.253A24.753,24.753,0,1,0,92.753,68,24.781,24.781,0,0,0,68,43.247Z" transform="translate(-38.5 -38.5)"/></g><g transform="translate(47.831 47.576)"><path class="a" d="M247.639,105.486a9.07,9.07,0,0,1,2.251,0c.007,2.071,0,4.141,0,6.212a17.033,17.033,0,0,0-2.265.02C247.66,109.637,247.629,107.561,247.639,105.486Z" transform="translate(-228.593 -105.413)"/><path class="a" d="M188.215,115.425c.677-.292,1.353-.583,2.045-.84.822,1.914,1.614,3.842,2.4,5.773-.724.21-1.388.575-2.094.829C189.8,119.256,188.95,117.364,188.215,115.425Z" transform="translate(-177.24 -113.341)"/><path class="a" d="M291.114,120.417c.781-1.923,1.573-3.844,2.393-5.752.7.24,1.373.534,2.048.826-.738,1.938-1.588,3.833-2.352,5.762C292.5,120.994,291.828,120.652,291.114,120.417Z" transform="translate(-266.182 -113.41)"/><path class="a" d="M139.175,147.783a7.625,7.625,0,0,1,1.573-1.618c1.43,1.5,2.966,2.907,4.369,4.431a20.528,20.528,0,0,0-1.6,1.552C142.084,150.679,140.615,149.244,139.175,147.783Z" transform="translate(-134.851 -140.638)"/><path class="a" d="M333.42,146.446A6.087,6.087,0,0,1,335,148.019c-1.442,1.466-2.905,2.911-4.355,4.367-.506-.553-1.047-1.072-1.588-1.589C330.509,149.346,331.955,147.886,333.42,146.446Z" transform="translate(-298.977 -140.881)"/><path class="a" d="M108.141,195.476c1.941.72,3.825,1.588,5.752,2.347-.233.713-.62,1.37-.825,2.1-1.924-.8-3.853-1.587-5.774-2.393C107.555,196.834,107.844,196.153,108.141,195.476Z" transform="translate(-107.295 -183.261)"/><path class="a" d="M356.084,197.823c1.929-.758,3.815-1.625,5.758-2.347q.458,1.007.837,2.047-2.873,1.215-5.762,2.393C356.7,199.2,356.323,198.535,356.084,197.823Z" transform="translate(-322.34 -183.261)"/></g><path class="a" d="M234.189,209.079a3.572,3.572,0,0,1-3.572,3.572h-.045A3.572,3.572,0,0,1,227,209.079l1.356-15.507c0-1.972.243-3.572,2.215-3.572h.045c1.973,0,2.215,1.6,2.215,3.572Z" transform="translate(-162.933 -130.952)"/><rect class="a" width="6.51" height="5.154" transform="translate(56.064 83.598)"/><rect class="a" width="6.51" height="5.154" transform="translate(64.745 83.598)"/><rect class="a" width="6.51" height="5.154" transform="translate(73.154 83.598)"/></g></svg>
