<svg id="Icons" height="512" viewBox="0 0 74 74" width="512" xmlns="http://www.w3.org/2000/svg"><path d="m50.09 69.92h-7.07a1 1 0 0 1 -1-1v-5.684a39.219 39.219 0 0 1 -13.57 0v5.684a1 1 0 0 1 -1 1h-7.07a1 1 0 0 1 -1-1v-8.62c-5.866-2.844-10.156-7.128-12.189-12.16h-3.091a2.1 2.1 0 0 1 -2.1-2.09v-8.96a2.1 2.1 0 0 1 2.1-2.09h3.093a21.38 21.38 0 0 1 5.4-7.6c-.238-5-2.888-7.336-3-7.436a1 1 0 0 1 .537-1.756c6.287-.691 9.463 2.436 10.633 3.993a32.424 32.424 0 0 1 5.054-1.709 1 1 0 0 1 .485 1.94 30.13 30.13 0 0 0 -5.477 1.935 1 1 0 0 1 -1.3-.425c-.089-.163-2.047-3.617-7.2-3.821a13.955 13.955 0 0 1 2.285 7.679 1.024 1.024 0 0 1 -.338.779 19.261 19.261 0 0 0 -5.452 7.761 1 1 0 0 1 -.94.66h-3.78a.111.111 0 0 0 -.1.09v8.96a.111.111 0 0 0 .1.09h3.78a1 1 0 0 1 .94.661c1.792 4.977 6.046 9.225 11.979 11.961a1 1 0 0 1 .581.908v8.25h5.07v-5.9a1 1 0 0 1 1.21-.978 37 37 0 0 0 15.15 0 1 1 0 0 1 1.21.978v5.9h5.07v-8.24a1 1 0 0 1 .581-.908 28.466 28.466 0 0 0 3.229-1.739 1 1 0 0 1 1.065 1.694 30.314 30.314 0 0 1 -2.872 1.586v8.607a1 1 0 0 1 -1.003 1z"/><path d="m63.381 45.11a1.065 1.065 0 0 1 -.167-.014 1 1 0 0 1 -.82-1.152 14.42 14.42 0 0 0 .2-2.364v-.1c-.046-7.772-5.962-14.724-15.439-18.139a1 1 0 0 1 .678-1.882c10.287 3.707 16.71 11.376 16.761 20.015v.106a16.249 16.249 0 0 1 -.224 2.7 1 1 0 0 1 -.989.83z"/><path d="m58.85 54.34a1 1 0 0 1 -.746-1.666 20.534 20.534 0 0 0 1.707-2.2 1 1 0 0 1 1.658 1.119 22.529 22.529 0 0 1 -1.869 2.413 1 1 0 0 1 -.75.334z"/><path d="m64.23 42.5c-.271 0-.508-.009-.7-.021a1 1 0 0 1 -.937-1.059 1.011 1.011 0 0 1 1.058-.937c.786.05 3.487.087 5.077-1.41a4.465 4.465 0 0 0 1.272-3.441 1 1 0 0 1 2 0 6.435 6.435 0 0 1 -1.9 4.9 8.661 8.661 0 0 1 -5.87 1.968z"/><path d="m15 35.235a1 1 0 0 1 -.336-1.942l.477-.17a1 1 0 1 1 .671 1.884l-.476.17a1.015 1.015 0 0 1 -.336.058z"/><path d="m48.562 30.27a.988.988 0 0 1 -.4-.084 28.483 28.483 0 0 0 -21.4-.864 1 1 0 0 1 -.663-1.887 30.833 30.833 0 0 1 22.855.917 1 1 0 0 1 -.4 1.918z"/><path d="m38.148 17.74h-4.489a1 1 0 0 1 -1-1v-5.7a1 1 0 0 1 1-1h4.489a3.852 3.852 0 0 1 0 7.7zm-3.489-2h3.489a1.852 1.852 0 0 0 0-3.7h-3.489z"/><path d="m38.148 23.444h-4.489a1 1 0 0 1 -1-1v-5.7a1 1 0 0 1 1-1h4.489a3.852 3.852 0 0 1 0 7.7zm-3.489-2h3.489a1.852 1.852 0 0 0 0-3.7h-3.489z"/><path d="m38.374 12.048a1 1 0 0 1 -1-1v-1.648a1 1 0 0 1 2 0v1.647a1 1 0 0 1 -1 1.001z"/><path d="m38.374 17.744a.985.985 0 0 1 -1-.983v-.034a1 1 0 1 1 2 0 1.014 1.014 0 0 1 -1 1.017z"/><path d="m38.374 25.451a1 1 0 0 1 -1-1v-2.029a1 1 0 0 1 2 0v2.029a1 1 0 0 1 -1 1z"/><path d="m35.329 25.451a1 1 0 0 1 -1-1v-2.012a1 1 0 0 1 2 0v2.012a1 1 0 0 1 -1 1z"/><path d="m35.329 12.032a1 1 0 0 1 -1-1v-1.632a1 1 0 0 1 2 0v1.631a1 1 0 0 1 -1 1.001z"/><path d="m42.631 28.345a1 1 0 0 1 -.479-1.879 10.852 10.852 0 1 0 -10.611-.186 1 1 0 1 1 -1 1.73 12.827 12.827 0 1 1 12.568.214 1 1 0 0 1 -.478.121z"/></svg>