<svg height="512" viewBox="0 0 64 64" width="512" xmlns="http://www.w3.org/2000/svg"><g id="plan"><path d="m45 27.586-1.293-1.293-1.414 1.414 2 2a1 1 0 0 0 1.414 0l4-4-1.414-1.414z"/><path d="m45 35.586-1.293-1.293-1.414 1.414 2 2a1 1 0 0 0 1.414 0l4-4-1.414-1.414z"/><path d="m45 44.586-1.293-1.293-1.414 1.414 2 2a1 1 0 0 0 1.414 0l4-4-1.414-1.414z"/><path d="m57 21h-7v-10a3.009 3.009 0 0 0 -3-3h-10v-1a3.009 3.009 0 0 0 -3-3h-2v-1a1 1 0 0 0 -1-1h-8a1 1 0 0 0 -1 1v1h-2a3.009 3.009 0 0 0 -3 3v1h-10a3.009 3.009 0 0 0 -3 3v48a3.009 3.009 0 0 0 3 3h40a3.009 3.009 0 0 0 3-3v-8h7a3.009 3.009 0 0 0 3-3v-24a3.009 3.009 0 0 0 -3-3zm-25-15h2a1 1 0 0 1 1 1v1h-3zm0 4h15a1 1 0 0 1 1 1v10h-1v-9a1 1 0 0 0 -1-1h-14zm-8-6h6v8a1 1 0 0 1 -1 1h-4a1 1 0 0 1 -1-1zm-1.82 9a3.01 3.01 0 0 0 2.82 2h4a3.01 3.01 0 0 0 2.82-2h13.18v8h-4a3.009 3.009 0 0 0 -3 3v24a3.009 3.009 0 0 0 3 3h4v6h-36v-44zm-3.18-6a1 1 0 0 1 1-1h2v2h-3zm29 52a1 1 0 0 1 -1 1h-40a1 1 0 0 1 -1-1v-48a1 1 0 0 1 1-1h15v1h-14a1 1 0 0 0 -1 1v46a1 1 0 0 0 1 1h38a1 1 0 0 0 1-1v-7h1zm10-11a1 1 0 0 1 -1 1h-16a1 1 0 0 1 -1-1v-24a1 1 0 0 1 1-1h16a1 1 0 0 1 1 1z"/><path d="m50 27h6v2h-6z"/><path d="m50 35h6v2h-6z"/><path d="m50 44h6v2h-6z"/><path d="m26 23h6a1 1 0 0 0 1-1v-1h3v-2h-3v-1a1 1 0 0 0 -1-1h-6a1 1 0 0 0 -1 1v1h-6v-1a1 1 0 0 0 -1-1h-6a1 1 0 0 0 -1 1v4a1 1 0 0 0 1 1h2v4h-2a1 1 0 0 0 -1 1v4a1 1 0 0 0 1 1h2v4h-2a1 1 0 0 0 -1 1v4a1 1 0 0 0 1 1h2v4h-2a1 1 0 0 0 -1 1v4a1 1 0 0 0 1 1h6a1 1 0 0 0 1-1v-1h6v1a1 1 0 0 0 1 1h6a1 1 0 0 0 1-1v-1h3v-2h-3v-1a1 1 0 0 0 -1-1h-6a1 1 0 0 0 -1 1v1h-6v-1a1 1 0 0 0 -1-1h-2v-4h2a1 1 0 0 0 1-1v-4a1 1 0 0 0 -1-1h-2v-4h2a1 1 0 0 0 1-1v-1h6v1a1 1 0 0 0 1 1h2v4h-2a1 1 0 0 0 -1 1v4a1 1 0 0 0 1 1h6a1 1 0 0 0 1-1v-1h3v-2h-3v-1a1 1 0 0 0 -1-1h-2v-4h2a1 1 0 0 0 1-1v-1h3v-2h-3v-1a1 1 0 0 0 -1-1h-6a1 1 0 0 0 -1 1v1h-6v-1a1 1 0 0 0 -1-1h-2v-4h2a1 1 0 0 0 1-1v-1h6v1a1 1 0 0 0 1 1zm1-4h4v2h-4zm0 30h4v2h-4zm4-10v2h-4v-2zm-4-10h4v2h-4zm-10 20v2h-4v-2zm0-10v2h-4v-2zm0-10v2h-4v-2zm0-8h-4v-2h4z"/></g></svg>