<?xml version="1.0"?>
<svg xmlns="http://www.w3.org/2000/svg" viewBox="0 0 512 512" width="512" height="512"><g id="_13-transfer" data-name="13-transfer"><g id="linear_color" data-name="linear color"><path d="M32,454a10,10,0,0,0,0,20H224a10,10,0,0,0,0-20h-6V361h6a10,10,0,0,0,10-10V336a10,10,0,0,0-4.453-8.32l-96-64a10,10,0,0,0-11.094,0l-96,64A10,10,0,0,0,22,336v15a10,10,0,0,0,10,10h6v93Zm58-92h76v92H90Zm96,92V362h12v92ZM128,284.019,213.472,341H42.528ZM58,362H70v92H58Z"/><path d="M240,486H16a10,10,0,0,0,0,20H240a10,10,0,0,0,0-20Z"/><path d="M288,200a10,10,0,0,0,0,20H480a10,10,0,0,0,0-20h-6V107h6a10,10,0,0,0,10-10V82a10,10,0,0,0-4.453-8.32l-96-64a10,10,0,0,0-11.094,0l-96,64A10,10,0,0,0,278,82V97a10,10,0,0,0,10,10h6v93Zm58-92h76v92H346Zm96,92V108h12v92ZM384,30.019,469.473,87H298.527ZM314,108h12v92H314Z"/><path d="M496,232H272a10,10,0,0,0,0,20H496a10,10,0,0,0,0-20Z"/><path d="M429.129,289.2a10,10,0,0,0-12.136,7.26A165.381,165.381,0,0,1,298.061,416.607l12.247-22.894a10,10,0,0,0-17.635-9.434L270.031,426.6a10,10,0,0,0,4.285,13.631l42.8,21.76a10,10,0,1,0,9.065-17.828l-18.6-9.457A185.863,185.863,0,0,0,436.39,301.339,10,10,0,0,0,429.129,289.2Z"/><path d="M82.872,222.8a9.984,9.984,0,0,0,12.135-7.26A165.383,165.383,0,0,1,213.939,95.393l-12.247,22.894a10,10,0,1,0,17.635,9.434L241.969,85.4a10,10,0,0,0-4.285-13.631l-42.8-21.76a10,10,0,1,0-9.065,17.828l18.6,9.457A185.86,185.86,0,0,0,75.611,210.661,10,10,0,0,0,82.872,222.8Z"/></g></g></svg>
