<?xml version="1.0" encoding="iso-8859-1"?>
<!-- Generator: Adobe Illustrator 19.0.0, SVG Export Plug-In . SVG Version: 6.00 Build 0)  -->
<svg version="1.1" id="Capa_1" xmlns="http://www.w3.org/2000/svg" xmlns:xlink="http://www.w3.org/1999/xlink" x="0px" y="0px"
	 viewBox="0 0 480.146 480.146" style="enable-background:new 0 0 480.146 480.146;" xml:space="preserve">
<g>
	
		<linearGradient id="SVGID_1_" gradientUnits="userSpaceOnUse" x1="-26.8013" y1="558.4709" x2="-26.8013" y2="616.8309" gradientTransform="matrix(8 0 0 -8 454.4833 4942.3125)">
		<stop  offset="0" style="stop-color:#006DF0"/>
		<stop  offset="1" style="stop-color:#00E7F0"/>
	</linearGradient>
	<path style="fill:url(#SVGID_1_);" d="M469.194,233.994l-41.264-34.4l33.8-33.808c3.124-3.125,3.123-8.19-0.002-11.314
		c-1.065-1.065-2.41-1.808-3.878-2.142l-116.104-26.4c12.1-56.149-23.609-111.475-79.758-123.575S150.513,25.965,138.413,82.113
		c-2.987,13.861-3.108,28.187-0.355,42.096l-123.76,28.128c-4.31,0.974-7.013,5.258-6.039,9.567
		c0.389,1.721,1.337,3.266,2.695,4.393l40.624,33.848l-40.624,33.848c-3.4,2.822-3.868,7.866-1.046,11.265
		c1.128,1.359,2.675,2.307,4.398,2.695l41.768,9.488v174.704c-0.004,3.737,2.58,6.978,6.224,7.808l176,40
		c1.17,0.256,2.382,0.256,3.552,0l176-40c3.644-0.83,6.228-4.071,6.224-7.808V257.442l41.768-9.488
		c4.31-0.971,7.018-5.252,6.047-9.562C471.5,236.668,470.553,235.122,469.194,233.994L469.194,233.994z M240.074,231.938
		l-139.928-31.792l72.88-16.6c38.061,32.285,93.725,32.863,132.448,1.376l73.272,15.512L240.074,231.938z M413.482,191.418
		l-94.128-19.92c0.32-0.376,0.592-0.8,0.904-1.152c1.36-1.656,2.688-3.336,3.944-5.064c0.544-0.752,1.064-1.52,1.6-2.288
		c1.032-1.496,2.024-3.008,2.968-4.552c0.512-0.84,1.016-1.68,1.512-2.536c0.912-1.6,1.768-3.2,2.592-4.84
		c0.408-0.8,0.8-1.6,1.216-2.4c1.019-2.133,1.957-4.312,2.816-6.536c0.112-0.28,0.248-0.544,0.352-0.8l102.936,23.424
		L413.482,191.418z M240.074,16.146c48.601,0.022,87.982,39.44,87.959,88.041s-39.44,87.982-88.041,87.959
		c-22.014-0.01-43.224-8.271-59.447-23.152c-3.004-2.779-5.816-5.759-8.416-8.92c-5.144-6.262-9.408-13.198-12.672-20.616
		c-1.622-3.701-2.985-7.51-4.08-11.4c-13.206-46.772,14.005-95.395,60.777-108.601C223.938,17.259,231.987,16.145,240.074,16.146
		L240.074,16.146z M142.306,139.65c0.128,0.336,0.288,0.656,0.416,0.992c0.8,2.136,1.664,4.248,2.608,6.328
		c0.368,0.8,0.8,1.6,1.16,2.4c0.8,1.648,1.6,3.28,2.52,4.888c0.464,0.848,0.944,1.696,1.432,2.528c0.952,1.6,1.952,3.2,2.984,4.744
		c0.472,0.712,0.92,1.432,1.416,2.136c1.544,2.216,3.16,4.384,4.872,6.48l-93.56,21.32l-32.528-27.112L142.306,139.65z
		 M66.154,208.826l156.368,35.528l-32.528,27.112L33.674,235.93L66.154,208.826z M72.074,261.074l118.224,26.872
		c0.583,0.134,1.178,0.201,1.776,0.2c1.87,0.001,3.682-0.652,5.12-1.848l34.88-29.072v204.896l-160-36.376L72.074,261.074z
		 M408.074,425.746l-160,36.376V257.226l34.88,29.072c1.438,1.196,3.25,1.849,5.12,1.848c0.598,0.001,1.193-0.066,1.776-0.2
		l118.224-26.872V425.746z M290.154,271.466l-32.528-27.112l156.368-35.528l32.52,27.104L290.154,271.466z"/>
	
		<linearGradient id="SVGID_2_" gradientUnits="userSpaceOnUse" x1="-26.8012" y1="558.4709" x2="-26.8012" y2="616.8309" gradientTransform="matrix(8 0 0 -8 454.4833 4942.3125)">
		<stop  offset="0" style="stop-color:#006DF0"/>
		<stop  offset="1" style="stop-color:#00E7F0"/>
	</linearGradient>
	<path style="fill:url(#SVGID_2_);" d="M240.074,144.146c-8.837,0-16-7.163-16-16c0-4.418-3.582-8-8-8s-8,3.582-8,8
		c0.055,14.547,9.915,27.227,24,30.864v9.136c0,4.418,3.582,8,8,8s8-3.582,8-8v-9.136c17.081-4.396,27.364-21.807,22.968-38.888
		c-3.636-14.126-16.381-23.994-30.968-23.976c-8.837,0-16-7.163-16-16s7.163-16,16-16c8.837,0,16,7.163,16,16c0,4.418,3.582,8,8,8
		s8-3.582,8-8c-0.055-14.547-9.915-27.227-24-30.864v-9.136c0-4.418-3.582-8-8-8s-8,3.582-8,8v9.136
		c-17.081,4.396-27.364,21.807-22.968,38.888c3.636,14.126,16.381,23.994,30.968,23.976c8.837,0,16,7.163,16,16
		S248.91,144.146,240.074,144.146z"/>
</g>
<g>
</g>
<g>
</g>
<g>
</g>
<g>
</g>
<g>
</g>
<g>
</g>
<g>
</g>
<g>
</g>
<g>
</g>
<g>
</g>
<g>
</g>
<g>
</g>
<g>
</g>
<g>
</g>
<g>
</g>
</svg>
