<svg id="Capa_1" enable-background="new 0 0 512.001 512.001" height="512" viewBox="0 0 512.001 512.001" width="512" xmlns="http://www.w3.org/2000/svg"><g><path d="m461.105 268.533c-6.656-65.022-56.084-117.562-119.604-128.961v-104.174h-272.714l-68.787 68.787v372.418h341.501v-167.272l68.399 65.405h13.938l88.163-84.304v-21.899zm-382.371-200.656v46.255h-46.255zm-48.734 378.726v-302.471h78.734v-78.734h202.767v71.928c-78.764 2.179-142.167 66.926-142.167 146.207v15h90v-15c0-29.646 23.05-53.993 52.167-56.102v219.172zm311.501-178.07v-34.933c13.711 7.141 24.136 19.753 28.339 34.932h-28.339zm75.368 71.358-43.252-41.358h28.252v-15c0-47.568-38.699-86.268-86.268-86.268-42.453 0-77.842 30.825-84.963 71.268h-30.342c7.382-57.05 56.277-101.268 115.305-101.268 64.11 0 116.268 52.157 116.268 116.268v15h28.252z"/></g></svg>