<?xml version="1.0" encoding="iso-8859-1"?>
<!-- Generator: Adobe Illustrator 19.0.0, SVG Export Plug-In . SVG Version: 6.00 Build 0)  -->
<svg version="1.1" id="Capa_1" xmlns="http://www.w3.org/2000/svg" xmlns:xlink="http://www.w3.org/1999/xlink" x="0px" y="0px"
	 viewBox="0 0 480 480" style="enable-background:new 0 0 480 480;" xml:space="preserve">
<linearGradient id="SVGID_1_" gradientUnits="userSpaceOnUse" x1="-26.875" y1="529.658" x2="-26.875" y2="589.089" gradientTransform="matrix(8 0 0 -8 455 4689)">
	<stop  offset="0" style="stop-color:#006DF0"/>
	<stop  offset="1" style="stop-color:#00E7F0"/>
</linearGradient>
<path style="fill:url(#SVGID_1_);" d="M472,316h-8v-72c-0.003-1.58-0.47-3.124-1.344-4.44l-64-96
	c-1.484-2.225-3.982-3.56-6.656-3.56h-72V76h8c4.418,0,8-3.582,8-8V36c0-4.418-3.582-8-8-8H8c-4.418,0-8,3.582-8,8v32
	c0,4.418,3.582,8,8,8h8v240H8c-4.418,0-8,3.582-8,8v64c0,4.418,3.582,8,8,8h64.704c0.096,0.52,0.144,1.088,0.248,1.6
	c5.255,25.984,30.579,42.787,56.563,37.532c18.878-3.818,33.646-18.551,37.509-37.42c0.12-0.544,0.168-1.136,0.264-1.696h177.416
	c0.096,0.52,0.144,1.088,0.248,1.6c5.255,25.984,30.579,42.787,56.563,37.532c18.878-3.818,33.646-18.551,37.509-37.42
	c0.12-0.544,0.168-1.136,0.264-1.696H472c4.418,0,8-3.582,8-8V324C480,319.582,476.418,316,472,316z M387.72,156L448,246.4V260H344
	c-4.418,0-8,3.582-8,8s3.582,8,8,8h104v40H320V156H387.72z M16,44h304v16H16V44z M32,76h272v240H32V76z M151.36,394.4
	c-3.515,17.32-20.405,28.511-37.725,24.996c-12.637-2.564-22.5-12.463-25.019-25.108C88.189,392.22,87.983,390.112,88,388
	c0-17.673,14.327-32,32-32s32,14.327,32,32C152.016,390.15,151.801,392.296,151.36,394.4z M423.36,394.4
	c-3.515,17.32-20.405,28.511-37.725,24.996c-12.637-2.564-22.5-12.463-25.019-25.108c-0.427-2.068-0.633-4.176-0.616-6.288
	c0-17.673,14.327-32,32-32s32,14.327,32,32C424.016,390.15,423.801,392.296,423.36,394.4z M464,380h-24.664
	c0-0.184-0.104-0.352-0.144-0.536c-0.436-2.409-1.057-4.782-1.856-7.096c-0.144-0.416-0.304-0.8-0.456-1.248
	c-0.852-2.273-1.873-4.48-3.056-6.6c-0.176-0.304-0.368-0.592-0.544-0.896c-1.274-2.176-2.715-4.249-4.312-6.2l-0.136-0.152
	c-1.619-1.923-3.387-3.715-5.288-5.36c-0.216-0.192-0.408-0.392-0.624-0.568c-1.87-1.567-3.858-2.99-5.944-4.256
	c-0.352-0.216-0.696-0.432-1.056-0.64c-2.09-1.21-4.27-2.258-6.52-3.136l-1.192-0.44c-2.345-0.849-4.752-1.515-7.2-1.992
	c-0.32-0.064-0.64-0.096-0.96-0.152c-5.327-0.971-10.785-0.971-16.112,0c-0.32,0.056-0.64,0.088-0.96,0.152
	c-2.448,0.477-4.855,1.143-7.2,1.992l-1.192,0.44c-2.25,0.878-4.43,1.926-6.52,3.136c-0.36,0.208-0.704,0.424-1.056,0.64
	c-2.086,1.266-4.074,2.689-5.944,4.256c-0.216,0.176-0.408,0.376-0.624,0.568c-1.901,1.645-3.669,3.437-5.288,5.36l-0.136,0.152
	c-1.599,1.952-3.041,4.028-4.312,6.208c-0.176,0.296-0.368,0.584-0.536,0.888c-1.19,2.118-2.214,4.324-3.064,6.6
	c-0.152,0.416-0.312,0.8-0.456,1.248c-0.799,2.314-1.42,4.687-1.856,7.096c-0.04,0.184-0.112,0.352-0.144,0.536H167.336
	c0-0.184-0.104-0.352-0.144-0.536c-0.436-2.409-1.057-4.782-1.856-7.096c-0.144-0.416-0.304-0.8-0.456-1.248
	c-0.852-2.273-1.873-4.48-3.056-6.6c-0.176-0.304-0.368-0.592-0.544-0.896c-1.274-2.176-2.715-4.249-4.312-6.2l-0.136-0.152
	c-1.619-1.923-3.387-3.715-5.288-5.36c-0.216-0.192-0.408-0.392-0.624-0.568c-1.87-1.567-3.858-2.99-5.944-4.256
	c-0.352-0.216-0.696-0.432-1.056-0.64c-2.09-1.21-4.27-2.258-6.52-3.136l-1.192-0.44c-2.345-0.849-4.752-1.515-7.2-1.992
	c-0.32-0.064-0.64-0.096-0.96-0.152c-5.327-0.971-10.785-0.971-16.112,0c-0.32,0.056-0.64,0.088-0.96,0.152
	c-2.448,0.477-4.855,1.143-7.2,1.992l-1.192,0.44c-2.25,0.878-4.43,1.926-6.52,3.136c-0.36,0.208-0.704,0.424-1.056,0.64
	c-2.086,1.266-4.074,2.689-5.944,4.256c-0.216,0.176-0.408,0.376-0.624,0.568c-1.901,1.645-3.669,3.437-5.288,5.36l-0.136,0.152
	c-1.599,1.952-3.041,4.028-4.312,6.208c-0.176,0.296-0.368,0.584-0.536,0.888c-1.19,2.118-2.214,4.324-3.064,6.6
	c-0.152,0.416-0.312,0.8-0.456,1.248c-0.799,2.314-1.42,4.687-1.856,7.096c-0.04,0.184-0.112,0.352-0.144,0.536H16v-48h448L464,380z
	"/>
<g>
	
		<linearGradient id="SVGID_2_" gradientUnits="userSpaceOnUse" x1="-41.875" y1="529.658" x2="-41.875" y2="589.089" gradientTransform="matrix(8 0 0 -8 455 4689)">
		<stop  offset="0" style="stop-color:#006DF0"/>
		<stop  offset="1" style="stop-color:#00E7F0"/>
	</linearGradient>
	<path style="fill:url(#SVGID_2_);" d="M120,364c-13.255,0-24,10.745-24,24s10.745,24,24,24s24-10.745,24-24S133.255,364,120,364z
		 M120,396c-4.418,0-8-3.582-8-8s3.582-8,8-8s8,3.582,8,8S124.418,396,120,396z"/>
	
		<linearGradient id="SVGID_3_" gradientUnits="userSpaceOnUse" x1="-7.875" y1="529.658" x2="-7.875" y2="589.089" gradientTransform="matrix(8 0 0 -8 455 4689)">
		<stop  offset="0" style="stop-color:#006DF0"/>
		<stop  offset="1" style="stop-color:#00E7F0"/>
	</linearGradient>
	<path style="fill:url(#SVGID_3_);" d="M392,364c-13.255,0-24,10.745-24,24s10.745,24,24,24s24-10.745,24-24S405.255,364,392,364z
		 M392,396c-4.418,0-8-3.582-8-8s3.582-8,8-8s8,3.582,8,8S396.418,396,392,396z"/>
	
		<linearGradient id="SVGID_4_" gradientUnits="userSpaceOnUse" x1="-9.3755" y1="529.658" x2="-9.3755" y2="589.089" gradientTransform="matrix(8 0 0 -8 455 4689)">
		<stop  offset="0" style="stop-color:#006DF0"/>
		<stop  offset="1" style="stop-color:#00E7F0"/>
	</linearGradient>
	<path style="fill:url(#SVGID_4_);" d="M344,244h72c4.418-0.004,7.997-3.589,7.993-8.007c-0.001-1.664-0.522-3.286-1.489-4.641
		l-40-56c-1.5-2.101-3.922-3.35-6.504-3.352h-32c-4.418,0-8,3.582-8,8v56C336,240.418,339.582,244,344,244z M352,188h19.88
		l28.576,40H352V188z"/>
	
		<linearGradient id="SVGID_5_" gradientUnits="userSpaceOnUse" x1="-35.875" y1="529.658" x2="-35.875" y2="589.089" gradientTransform="matrix(8 0 0 -8 455 4689)">
		<stop  offset="0" style="stop-color:#006DF0"/>
		<stop  offset="1" style="stop-color:#00E7F0"/>
	</linearGradient>
	<path style="fill:url(#SVGID_5_);" d="M168,92c-57.438,0-104,46.562-104,104s46.562,104,104,104s104-46.562,104-104
		C271.934,138.59,225.41,92.066,168,92z M168,284c-48.601,0-88-39.399-88-88s39.399-88,88-88s88,39.399,88,88
		C255.943,244.577,216.577,283.943,168,284z"/>
	
		<linearGradient id="SVGID_6_" gradientUnits="userSpaceOnUse" x1="-37.875" y1="529.658" x2="-37.875" y2="589.089" gradientTransform="matrix(8 0 0 -8 455 4689)">
		<stop  offset="0" style="stop-color:#006DF0"/>
		<stop  offset="1" style="stop-color:#00E7F0"/>
	</linearGradient>
	<path style="fill:url(#SVGID_6_);" d="M168,124c-4.418,0-8,3.582-8,8v56h-24c-4.418,0-8,3.582-8,8s3.582,8,8,8h32
		c4.418,0,8-3.582,8-8v-64C176,127.582,172.418,124,168,124z"/>
</g>
<linearGradient id="SVGID_7_" gradientUnits="userSpaceOnUse" x1="-26.875" y1="529.658" x2="-26.875" y2="589.089" gradientTransform="matrix(8 0 0 -8 455 4689)">
	<stop  offset="0" style="stop-color:#006DF0"/>
	<stop  offset="1" style="stop-color:#00E7F0"/>
</linearGradient>
<path style="fill:url(#SVGID_7_);" d="M472,452H8c-4.418,0-8-3.582-8-8s3.582-8,8-8h464c4.418,0,8,3.582,8,8S476.418,452,472,452z"
	/>
<g>
</g>
<g>
</g>
<g>
</g>
<g>
</g>
<g>
</g>
<g>
</g>
<g>
</g>
<g>
</g>
<g>
</g>
<g>
</g>
<g>
</g>
<g>
</g>
<g>
</g>
<g>
</g>
<g>
</g>
</svg>
